<svg width="512" height="512" viewBox="0 0 512 512" fill="none" xmlns="http://www.w3.org/2000/svg">
<rect width="512" height="512" fill="white"/>
<path d="M241.262 11.6104C239.974 12.5766 238.042 18.6959 237.398 25.1374C236.11 35.1216 235.466 36.732 231.923 37.3761C228.703 37.6982 226.126 35.4437 220.974 26.4257C217.431 19.9842 214.533 14.8311 213.889 14.1869C213.567 13.8649 210.024 14.509 205.193 15.7973L197.142 18.0518V31.9009C197.142 49.6148 193.922 50.259 181.04 35.4437L171.701 24.8153L164.294 28.3581C157.209 31.9009 156.887 32.223 158.175 38.3423C161.717 55.0901 161.717 58.9549 157.853 60.5653C155.598 61.5315 152.378 59.9211 147.225 55.0901C134.021 42.8513 134.021 42.8513 125.97 47.6824C122.106 49.9369 118.885 52.1914 118.885 52.8356C118.885 53.1576 121.14 58.6328 123.716 64.7522C127.58 73.4481 128.225 76.6689 126.614 78.6013C123.394 82.4662 121.784 82.1441 109.546 74.0923L98.2743 67.0067L92.1554 73.1261C85.0704 80.2117 84.7484 77.313 96.342 97.2815C99.2404 101.79 99.2404 103.723 97.6302 105.333C95.6979 107.266 92.1554 106.622 81.2059 102.435L67.3579 97.2815L63.1713 103.723C60.917 107.588 59.3068 111.131 59.3068 112.097C59.3068 112.741 63.1713 117.572 67.3579 122.081C73.1548 128.2 75.4091 131.743 74.4429 133.998C73.1548 137.54 68.002 137.54 49.9675 133.676C44.1707 132.387 43.5266 133.031 39.662 140.439L35.7975 148.169L44.8148 154.932C49.9675 158.797 55.1202 162.34 56.0863 162.984C57.3745 163.628 57.0525 165.883 55.7643 167.815C53.832 171.036 51.5777 171.358 39.662 171.036L25.8141 170.392L23.8818 178.121C22.5936 182.308 21.6275 186.173 21.6275 187.139C21.6275 187.784 27.1023 191.326 33.2211 194.547C42.5604 199.056 44.8148 200.989 43.8486 204.209C43.2045 207.43 39.9841 208.718 28.0684 210.329L13.2543 212.583V221.279V229.975L24.848 233.518C39.34 237.705 39.0179 237.383 37.7298 242.214C37.0857 244.79 32.8991 247.367 23.8818 250.266L11 254.775V263.471C11 271.844 11.322 272.166 17.4409 273.133C38.6959 276.353 38.6959 276.675 38.6959 280.218C38.6959 282.795 34.8314 286.338 27.4243 290.525C20.9834 294.067 15.5086 297.288 15.1866 297.61C14.8645 297.932 14.8645 301.797 15.8307 306.306L17.1189 314.358H30.9668C42.2384 314.358 45.1368 315.002 46.1029 317.901C47.3911 321.121 45.4589 323.376 31.2889 334.648L24.848 339.802L28.3905 347.209C31.6109 354.617 31.933 354.939 40.9502 353.329C63.4934 349.464 66.3918 353.329 51.8998 368.788L42.8825 378.45L47.0691 384.57C49.3234 387.79 51.8998 391.011 53.1879 391.655C54.1541 392.299 60.2729 390.367 66.3918 387.79C76.3752 383.281 78.3075 382.959 80.8838 385.536C83.4602 387.79 82.8161 390.045 76.3752 400.351C72.5107 406.792 69.2902 413.234 69.2902 414.2C69.2902 415.166 71.5445 418.387 74.765 421.286L80.2398 426.761L91.8334 419.675C102.139 413.234 103.749 412.59 106.325 415.166C108.58 417.743 108.58 419.675 104.071 430.626C101.173 437.389 99.2404 443.509 99.2404 444.475C99.2404 445.441 102.139 448.018 106.003 450.594L112.444 454.781L122.75 446.085C129.191 440.61 134.021 437.711 135.954 438.356C139.818 439.644 139.818 440.61 136.276 456.714L133.377 469.596L141.428 473.139L149.48 477.004L157.209 466.376C163.005 458.324 165.904 456.069 168.802 456.714C172.023 457.68 172.667 459.612 172.667 472.495C172.667 486.666 172.989 487.31 177.819 489.243C187.159 492.786 189.413 491.497 195.21 480.225C199.719 471.207 201.329 469.274 205.193 469.919C209.058 470.563 209.702 472.173 211.634 484.412L213.567 498.261L222.584 498.905L232.245 497.939L235.466 485.7C238.364 475.394 239.652 473.783 243.517 473.783C247.381 473.783 248.669 476.038 252.534 487.955C256.077 498.583 257.687 501.804 260.263 500.837C261.873 500.193 265.738 499.549 268.958 499.549C274.433 499.549 274.433 499.227 276.043 486.344C277.654 475.072 278.298 472.817 281.84 472.173C285.061 471.851 287.315 474.428 292.79 484.734C297.62 494.074 300.519 497.617 302.773 496.328C304.383 495.684 308.248 494.718 311.468 494.074L317.265 492.786L315.977 479.259C314.689 467.02 315.333 465.732 318.875 464.443C322.096 463.477 324.35 464.765 327.571 468.952C329.825 471.851 334.334 477.004 337.232 480.225L342.063 486.022L349.148 482.479C353.012 480.547 356.233 478.614 356.555 478.614C357.199 478.292 353.656 461.867 351.724 455.425C351.08 453.493 352.046 451.56 354.944 450.916C357.843 449.95 361.707 451.883 369.759 458.968L380.386 468.308L387.471 462.833L394.556 457.68L389.403 445.763C384.895 435.457 384.573 433.524 387.149 430.948C389.403 428.371 391.658 429.015 402.929 435.779C415.167 443.187 416.133 443.509 419.354 440.288C427.405 433.202 427.405 429.982 419.998 419.031C413.557 409.691 413.235 408.403 416.133 405.826C418.709 402.928 420.642 403.25 431.913 407.759L444.795 412.912L449.626 407.115C452.202 403.572 454.456 400.029 454.456 399.063C454.456 397.774 450.914 393.265 446.405 389.079C438.354 381.027 437.388 378.772 439.964 374.585C441.253 372.653 444.473 372.653 455.423 374.907C463.152 376.518 469.915 377.162 470.237 376.518C470.881 375.874 472.491 372.009 474.101 368.466C476.678 362.025 476.356 361.702 470.881 357.515C458.643 348.497 456.067 345.277 457.033 341.734C458.321 338.835 460.897 338.191 473.135 338.191H487.627L489.559 330.784C491.492 324.02 491.17 322.732 487.305 319.833C485.051 317.901 479.576 315.002 475.711 313.07C471.525 311.137 467.982 309.205 467.982 308.561C468.304 304.052 473.457 301.475 485.373 299.543L498.899 297.288V288.592V279.896L486.339 276.031C475.711 272.811 473.779 271.522 474.423 267.98C474.745 265.081 478.288 262.826 487.949 259.606L500.831 255.097V246.723V238.027L487.627 236.094C475.711 234.806 474.101 233.84 474.101 229.975C474.101 226.754 477 223.856 486.017 219.347C498.577 212.261 499.221 211.295 495.678 201.311C493.424 195.191 493.424 195.191 480.22 195.513C468.304 195.835 467.016 195.513 466.372 191.971C466.05 189.072 469.271 185.529 477 179.41L487.949 170.714L483.763 162.662C480.864 156.865 478.932 154.932 476.356 155.576C461.541 160.085 455.101 160.408 452.524 157.509C450.592 154.932 451.236 153 455.745 147.203C458.965 143.338 463.474 138.507 465.728 136.252L469.593 132.387L464.118 124.98L458.643 117.25L448.016 122.081C442.219 124.658 436.422 126.912 434.812 126.912C429.337 126.912 429.981 120.149 437.066 108.876L444.473 96.9594L438.032 90.84L431.913 84.3986L420.642 92.1283C410.658 98.8918 409.048 99.2139 406.15 96.6373C403.573 93.7387 403.895 92.1283 408.404 80.5337C411.302 73.1261 413.557 67.0067 413.557 66.6846C413.557 66.0405 410.336 63.786 406.472 61.5315L399.387 57.0225L390.047 65.3963C375.555 78.2792 372.335 75.0585 376.199 50.9031L377.81 41.563L370.081 38.3423L362.351 35.1216L357.521 41.563C346.893 55.4121 346.249 56.0563 343.029 54.768C340.13 53.8018 339.486 50.5811 339.486 38.6644C339.486 24.1712 339.164 23.8491 334.011 22.8829C330.791 22.2387 326.927 20.9505 325.316 20.6284C323.062 19.9842 320.486 23.205 316.621 31.9009C313.401 38.3423 310.18 43.8175 308.892 43.8175C304.061 43.4955 302.129 40.2748 300.841 29.3243C298.909 15.7973 296.01 11.9324 286.993 11.9324C280.552 11.9324 280.552 12.2545 277.009 24.8153C274.111 35.4437 272.823 37.6982 268.958 37.6982C265.416 37.6982 264.128 35.4437 260.263 23.8491C256.076 10.6442 255.754 10 249.636 10C246.737 10 242.873 10.6441 241.262 11.6104ZM294.078 62.8198C310.502 66.0405 342.385 77.313 342.385 79.2454C342.385 79.8896 335.944 88.2634 327.893 97.2815C285.061 147.203 248.669 156.865 207.77 129.811C195.21 122.081 161.395 89.5517 161.395 85.6869C161.395 80.8558 202.939 65.0743 227.092 61.2094C240.296 58.9549 279.908 59.9211 294.078 62.8198ZM370.725 95.6711C412.913 124.335 444.473 177.477 451.236 229.653C452.524 240.925 452.524 240.925 447.693 240.925C438.676 240.925 410.014 234.806 395.844 229.653C369.436 220.313 353.656 207.108 345.283 187.139C341.096 177.477 339.808 150.101 342.385 134.964C345.927 117.25 354.622 87.6193 356.877 87.6193C357.843 87.6193 363.962 91.1621 370.725 95.6711ZM151.412 103.079C158.819 120.149 165.26 146.236 166.548 162.34C169.124 199.056 151.412 224.822 113.41 239.959C98.5963 245.757 71.2225 253.164 64.1375 253.164C59.6288 253.164 59.6288 252.842 60.917 241.57C65.4257 196.48 80.2398 161.052 108.258 126.912C116.309 117.25 143.039 93.7387 145.937 93.7387C146.903 93.7387 149.48 97.9256 151.412 103.079ZM269.924 213.227C274.755 214.516 281.518 219.025 286.993 224.822C301.807 239.637 304.383 256.385 295.366 275.065C287.637 289.88 276.687 297.288 261.229 298.254C246.737 299.22 237.076 296.322 227.737 287.948C198.43 262.182 217.109 211.939 256.077 210.973C259.297 210.973 265.416 211.939 269.924 213.227ZM451.558 274.099C449.626 303.729 436.1 341.09 417.743 367.822C410.658 378.45 382.64 406.792 372.657 413.878L366.216 418.387L362.351 409.369C351.724 383.925 347.537 366.211 347.537 342.7C347.537 321.443 347.859 318.867 353.012 309.849C361.707 293.423 377.488 280.218 399.065 271.522C410.658 266.691 444.151 257.351 449.948 257.029C451.88 257.029 452.524 259.928 451.558 274.099ZM96.6641 275.065C155.92 288.27 179.43 318.867 171.379 372.331C169.124 388.112 160.751 419.353 157.531 422.574C155.276 424.829 137.886 412.268 121.14 396.486C103.749 379.416 88.2909 358.482 78.3075 336.903C70.5784 319.833 61.8832 288.27 61.8832 276.353V268.624L70.5784 269.912C74.765 270.556 86.6807 273.133 96.6641 275.065ZM296.654 375.552C307.604 381.027 317.265 388.756 332.079 403.25C343.351 414.522 352.368 424.506 352.368 425.473C352.368 426.761 346.249 430.304 339.164 433.524C305.027 448.984 271.213 454.459 236.432 450.594C216.143 448.34 182.006 439 174.599 433.524C171.057 431.27 171.701 430.304 179.43 419.997C198.43 395.842 220.329 377.484 238.686 370.076C245.771 367.178 251.89 366.533 264.772 367.178C279.908 367.5 283.45 368.466 296.654 375.552Z" fill="black"/>
<circle cx="256.5" cy="255.5" r="204.5" fill="white"/>
<path d="M399.876 423.335C396.165 419.703 389.771 398.899 389.771 423.335C387.623 418.896 382.397 427.976 380.835 423.335C382.201 428.38 379.272 418.492 380.835 423.335C379.663 418.29 378.296 413.347 376.733 408.504L372.632 396.094C368.531 390.445 364.82 384.694 361.501 378.842C358.18 372.991 354.763 367.341 351.248 361.892C347.732 356.243 343.924 350.795 339.823 345.548C335.917 340.302 331.23 335.459 325.762 331.02C321.856 338.889 317.072 345.851 311.408 351.904C305.745 357.756 299.495 362.7 292.66 366.735C285.825 370.771 278.599 373.798 270.983 375.815C263.366 377.833 255.652 378.842 247.841 378.842C234.365 378.842 221.574 375.815 209.466 369.762C197.553 363.709 186.421 355.536 176.071 345.245C165.72 334.753 156.151 322.444 147.363 308.319C138.77 294.195 130.861 279.162 123.635 263.221C116.605 247.079 110.258 230.432 104.594 213.28C99.1259 196.129 94.4389 179.179 90.5331 162.431L109.281 170.301C112.21 182.206 115.823 194.313 120.12 206.621C124.612 218.729 129.884 230.533 135.938 242.034C142.188 253.536 149.121 264.331 156.737 274.42C164.549 284.509 173.239 293.388 182.809 301.055C192.573 308.521 203.216 314.474 214.739 318.913C226.261 323.15 238.857 325.269 252.528 325.269C261.12 325.269 268.542 324.058 274.791 321.637C281.236 319.014 286.508 315.483 290.61 311.043C294.711 306.403 297.738 301.055 299.691 295.002C301.839 288.747 302.913 281.987 302.913 274.723C302.913 267.055 302.034 259.69 300.277 252.628C298.714 245.364 296.468 239.008 293.539 233.559C290.805 227.91 287.582 223.47 283.872 220.242C280.357 216.812 276.549 215.096 272.448 215.096C266.393 224.782 259.265 232.349 251.063 237.797C242.861 243.245 234.365 245.969 225.577 245.969C220.304 245.969 215.227 244.96 210.345 242.942C205.462 240.925 201.068 238.2 197.163 234.77C193.257 231.138 190.132 226.901 187.788 222.058C185.445 217.215 184.273 211.969 184.273 206.319C184.273 201.073 185.152 195.927 186.91 190.882C188.667 185.636 191.108 180.995 194.233 176.959C197.553 172.722 201.459 169.393 205.951 166.971C210.638 164.348 215.813 163.037 221.476 163.037C237.881 163.037 252.918 166.164 266.589 172.419C280.454 178.675 292.465 187.352 302.62 198.449C312.775 209.547 320.684 222.764 326.348 238.099C332.011 253.233 334.843 269.779 334.843 287.738L369.703 350.088V146.39H74.1286L84.0655 115.214H421.92L435.949 146.39H399.876V423.335Z" fill="black"/>
</svg>
